PathFileType	4	(X/Y/Z)	TVC_20_BWA2_walk_RCNL2025.trc
DataRate	CameraRate	NumFrames	NumMarkers	Units	OrigDataRate	OrigDataStartFrame	OrigNumFrames
100	100	4	27	mm	100	83	221
Frame#	Time	R_Shoulder			L_Shoulder			C7			J_Notch			R_Elbow			L_Elbow			R_Wrist			L_Wrist			R_Asis			L_Asis			R_Psis			L_Psis			Sacral			Thoracic			Sternum			R_Thigh_Lateral			R_Knee_Lateral			R_Shank_Lateral			R_Ankle_Lateral			R_Heel			R_Toe			L_Thigh_Lateral			L_Knee_Lateral			L_Shank_Lateral			L_Ankle_Lateral			L_Heel			L_Toe		
		X1	Y1	Z1	X2	Y2	Z2	X3	Y3	Z3	X4	Y4	Z4	X5	Y5	Z5	X6	Y6	Z6	X7	Y7	Z7	X8	Y8	Z8	X9	Y9	Z9	X10	Y10	Z10	X11	Y11	Z11	X12	Y12	Z12	X13	Y13	Z13	X14	Y14	Z14	X15	Y15	Z15	X16	Y16	Z16	X17	Y17	Z17	X18	Y18	Z18	X19	Y19	Z19	X20	Y20	Z20	X21	Y21	Z21	X22	Y22	Z22	X23	Y23	Z23	X24	Y24	Z24	X25	Y25	Z25	X26	Y26	Z26	X27	Y27	Z27
83	0.82000000	366.155334	1409.200317	133.215836	339.946075	1423.412109	-233.912628	324.812286	1471.665405	-37.924652	441.454865	1338.475098	-45.823818	297.605530	1106.017578	239.976654	311.478790	1115.325684	-346.598022	459.954422	899.951324	230.497520	477.696762	913.030945	-332.442810	375.863647	1014.119324	98.296288	399.174713	1016.575073	-177.790039	230.759293	1015.081848	-4.582030	225.940613	1008.711853	-94.463707	228.349953	1011.896851	-49.522868	210.245560	1245.058838	-55.439857	451.824280	1196.090332	-51.269314	430.091003	690.956055	175.571716	488.626617	493.347015	108.685547	374.227448	353.047211	159.828964	246.569687	160.923721	79.351143	192.055573	162.419556	30.929331	353.389923	61.508251	61.639408	359.552612	644.419739	-233.328964	381.635986	487.116547	-147.357422	342.537323	304.895416	-197.095612	301.193634	70.744209	-104.354156	253.548935	63.155464	-64.226662	440.926453	36.879871	-74.905457
84	0.83000000	379.164459	1409.013916	133.010406	352.985565	1423.695190	-234.076706	337.890594	1471.647827	-38.100433	454.345123	1338.391846	-46.126419	308.513306	1106.546509	240.086288	326.871552	1115.829590	-348.029083	470.174622	899.811554	231.871475	496.875839	916.882904	-331.962143	389.007599	1014.414551	97.938271	411.059143	1016.189636	-178.239624	243.404129	1015.241821	-4.106242	238.105408	1009.000122	-93.825531	240.754768	1012.120972	-48.965886	223.078400	1245.218750	-55.580971	464.513306	1195.980225	-51.908188	449.359009	693.403198	175.900970	509.537964	496.531067	108.081207	402.703094	350.129364	159.879974	285.838989	151.128815	79.765396	231.284363	149.202927	31.267477	398.689728	58.658813	62.810944	365.671997	644.019653	-233.289917	384.670166	486.493195	-147.349472	343.728912	304.810333	-197.173828	301.219849	70.792877	-104.123772	253.605011	63.314526	-63.948833	440.970062	36.826336	-74.931129
85	0.84000000	392.210266	1408.493774	132.804657	365.991669	1423.578857	-234.238190	350.956787	1471.287109	-38.286751	467.224487	1337.923218	-46.440830	319.527649	1106.732666	240.181580	342.359467	1115.982666	-349.472656	480.499680	899.363159	233.201180	516.039062	920.432892	-331.387360	402.148987	1014.257507	97.699104	422.932922	1015.503906	-178.619339	256.059143	1015.013672	-3.561351	250.251221	1008.934631	-93.120293	253.155182	1011.974152	-48.340822	235.877655	1245.047241	-55.602051	477.170166	1195.458496	-52.514458	468.128479	695.334717	176.221909	529.764587	499.260437	107.413948	431.020111	347.021393	159.929276	325.728424	141.661392	80.220154	271.415619	136.294449	31.650251	444.187012	56.454945	63.891026	372.114746	643.508850	-233.255402	387.929718	485.814941	-147.343689	345.113678	304.686279	-197.244904	301.259460	70.850937	-103.891052	253.670135	63.481564	-63.667664	441.009003	36.772736	-74.960609
86	0.85000000	405.297821	1407.660034	132.607071	378.968506	1423.079956	-234.383957	364.012634	1470.598022	-38.474228	480.094116	1337.081909	-46.757225	330.656555	1106.588745	240.263809	357.962219	1115.800293	-350.905548	490.925476	898.612366	234.477234	535.165375	923.660004	-330.710419	415.308624	1013.665771	97.573860	434.803558	1014.544067	-178.931412	268.742645	1014.412659	-2.948528	262.395966	1008.527100	-92.354103	265.569305	1011.469879	-47.651315	248.649078	1244.554077	-55.486267	489.794769	1194.539551	-53.078178	486.223785	696.674316	176.511688	549.289246	501.502563	106.694740	459.069977	343.838409	159.978516	366.168823	132.705032	80.718399	312.357788	123.912750	32.083389	489.770294	55.028591	64.887146	378.890442	642.891541	-233.233429	391.419739	485.079071	-147.345520	346.690002	304.523590	-197.313477	301.308563	70.922600	-103.658867	253.743210	63.666817	-63.387760	441.039642	36.718475	-74.995682
